<?xml version="1.0"?>
<svg xmlns="http://www.w3.org/2000/svg" xmlns:xlink="http://www.w3.org/1999/xlink" version="1.1" id="File" x="0px" y="0px" width="512px" height="512px" viewBox="0 0 144.083 144" enable-background="new 0 0 144.083 144" xml:space="preserve" class=""><g><path d="M86.706,24.036H46.262c-6.943,0-12.593,5.648-12.593,12.592v70.744c0,6.943,5.649,12.592,12.593,12.592h51.56  c6.942,0,12.591-5.648,12.591-12.592V50.533L86.706,24.036z M88.365,34.888l12.338,13.791H88.365V34.888z M97.822,113.964h-51.56  c-3.635,0-6.593-2.957-6.593-6.592V36.628c0-3.635,2.958-6.592,6.593-6.592h36.103v24.643h22.048v52.693  C104.413,111.007,101.456,113.964,97.822,113.964z" data-original="#000000" class="active-path" data-old_color="#000000" fill="#FFFFFF"/><polygon points="57.747,67.971 43.267,80.351 57.747,92.731 61.646,88.171 52.5,80.351 61.646,72.531 " data-original="#000000" class="active-path" data-old_color="#000000" fill="#FFFFFF"/><polygon points="81.936,72.531 91.083,80.351 81.936,88.171 85.835,92.731 100.315,80.351 85.835,67.971 " data-original="#000000" class="active-path" data-old_color="#000000" fill="#FFFFFF"/><rect x="68.007" y="67.146" transform="matrix(-0.9369 -0.3496 0.3496 -0.9369 109.289 181.2915)" width="6" height="27.272" data-original="#000000" class="active-path" data-old_color="#000000" fill="#FFFFFF"/></g> </svg>
