<?xml version="1.0"?>
<svg xmlns="http://www.w3.org/2000/svg" xmlns:xlink="http://www.w3.org/1999/xlink" version="1.1" id="TestTube" x="0px" y="0px" width="512px" height="512px" viewBox="0 0 144.083 144" enable-background="new 0 0 144.083 144" xml:space="preserve" class=""><g><path d="M130.734,102.975l-22.765-31.261V55c3.195-1.131,5.49-4.184,5.49-7.762c0-4.537-3.691-8.228-8.229-8.228H88.502  c-4.539,0-8.232,3.691-8.232,8.228c0,3.578,2.296,6.63,5.492,7.762v16.714L75.2,86.219c-0.197-1.587-0.515-3.142-0.947-4.658  c-0.022-0.524-0.178-1.011-0.437-1.432c-2.975-8.823-9.796-16.101-18.713-19.445V38.455c3.151-1.128,5.412-4.145,5.412-7.679  c0-4.496-3.658-8.154-8.154-8.154H35.872c-4.496,0-8.154,3.658-8.154,8.154c0,3.535,2.262,6.552,5.414,7.68v22.229  c-12.093,4.535-20.359,16.294-20.359,29.351c0,17.283,14.061,31.344,31.343,31.344c10.718,0,20.191-5.409,25.847-13.639h58.346  c1.129,0,2.162-0.634,2.674-1.64S131.399,103.887,130.734,102.975z M88.502,45.011h16.729c1.229,0,2.229,1,2.229,2.228  c0,1.23-1,2.23-2.229,2.23h-0.262c-1.657,0-3,1.343-3,3v8.5H91.762v-8.5c0-1.657-1.343-3-3-3h-0.26c-1.231,0-2.232-1-2.232-2.23  C86.27,46.01,87.271,45.011,88.502,45.011z M36.976,65.723c1.278-0.375,2.156-1.547,2.156-2.879V35.929c0-1.657-1.343-3-3-3h-0.26  c-1.188,0-2.154-0.966-2.154-2.153c0-1.188,0.966-2.154,2.154-2.154H52.36c1.188,0,2.154,0.966,2.154,2.154  c0,1.188-0.967,2.153-2.154,2.153h-0.258c-1.657,0-3,1.343-3,3v26.915c0,1.332,0.878,2.504,2.156,2.879  c8.138,2.386,14.402,8.729,16.951,16.533c-0.276,1.857-1.866,3.291-3.799,3.291c-1.895,0-3.485-1.367-3.782-3.251  c-0.23-1.459-1.487-2.533-2.964-2.533s-2.733,1.074-2.964,2.533c-0.297,1.884-1.888,3.251-3.782,3.251s-3.486-1.368-3.785-3.253  c-0.23-1.458-1.487-2.531-2.963-2.531s-2.732,1.073-2.963,2.531c-0.299,1.885-1.891,3.253-3.785,3.253  c-1.894,0-3.484-1.368-3.781-3.252c-0.23-1.458-1.487-2.532-2.963-2.532s-2.733,1.074-2.963,2.532  c-0.297,1.884-1.889,3.252-3.784,3.252c-2.027,0-3.675-1.577-3.826-3.565C22.709,74.301,28.932,68.081,36.976,65.723z   M44.116,115.379c-13.961,0-25.321-11.349-25.342-25.305c1.502,0.928,3.265,1.473,5.157,1.473c2.602,0,4.98-1,6.747-2.668  c1.766,1.668,4.144,2.668,6.745,2.668c2.603,0,4.981-1.001,6.748-2.669c1.767,1.668,4.146,2.669,6.748,2.669  c2.602,0,4.98-1,6.746-2.667c1.766,1.667,4.145,2.667,6.746,2.667c1.846,0,3.568-0.52,5.046-1.405  C69.399,104.067,58.056,115.379,44.116,115.379z M73.183,101.74c0.591-1.462,1.073-2.978,1.44-4.539l16.563-22.745  c0.374-0.513,0.575-1.131,0.575-1.766v-5.722h10.207v5.722c0,0.635,0.201,1.253,0.575,1.766l19.869,27.284H73.183z" data-original="#000000" class="active-path" data-old_color="#000000" fill="#FFFFFF"/></g> </svg>
