<?xml version="1.0"?>
<svg xmlns="http://www.w3.org/2000/svg" xmlns:xlink="http://www.w3.org/1999/xlink" version="1.1" id="Capa_1" x="0px" y="0px" viewBox="0 0 512 512" style="enable-background:new 0 0 512 512;" xml:space="preserve" width="512px" height="512px"><g><g>
	<g>
		<path d="M256,116c-5.52,0-10,4.48-10,10c0,5.52,4.48,10,10,10s10-4.48,10-10S261.52,116,256,116z" data-original="#000000" class="active-path" data-old_color="#000000" fill="#FFFFFF"/>
	</g>
</g><g>
	<g>
		<path d="M256,376c-5.52,0-10,4.48-10,10c0,5.52,4.48,10,10,10s10-4.48,10-10C266,380.48,261.52,376,256,376z" data-original="#000000" class="active-path" data-old_color="#000000" fill="#FFFFFF"/>
	</g>
</g><g>
	<g>
		<path d="M502,246h-44.762l-14.443-11.141c-32.974-25.413-46.574-69.121-33.844-108.763l4.21-13.116l29.91-29.91    c3.905-3.905,3.905-10.237,0-14.143c-3.906-3.904-10.236-3.904-14.143,0l-29.704,29.704l-21.109,5.524    c-8.217,2.152-16.667,3.244-25.116,3.244c-36.509,0-69.624-19.768-87-51.739V10c0-5.522-4.478-10-10-10c-5.522,0-10,4.478-10,10    v45.641c-21.852,40.245-67.6,60.17-112.118,48.515l-21.106-5.523L83.071,68.929c-3.905-3.904-10.237-3.904-14.143,0    c-3.905,3.905-3.905,10.237,0,14.143l29.704,29.704l5.523,21.098C115.809,178.38,95.917,224.135,55.7,246H10    c-5.523,0-10,4.478-10,10c0,5.522,4.477,10,10,10h44.77l14.436,11.141c32.973,25.413,46.574,69.121,33.843,108.763l-4.21,13.116    L68.93,428.929c-3.905,3.905-3.905,10.237,0,14.143c3.906,3.905,10.237,3.905,14.143,0l29.704-29.704l21.109-5.523    c8.216-2.152,16.667-3.244,25.116-3.244c36.509,0,69.623,19.768,87,51.739V502c0,5.522,4.478,10,10,10c5.522,0,10-4.478,10-10    v-45.643c21.853-40.244,67.594-60.167,112.119-48.513l21.105,5.523l29.704,29.704c3.907,3.905,10.236,3.904,14.143,0    c3.905-3.905,3.905-10.237,0-14.143l-29.704-29.704l-5.523-21.108c-2.152-8.217-3.244-16.667-3.244-25.116    c0-36.509,19.768-69.624,51.738-87H502c5.522,0,10-4.478,10-10C512,250.478,507.522,246,502,246z M207.536,117.038    c14.793-6.605,28.038-16.199,38.937-27.999C247.76,93.075,251.538,96,256,96c4.433,0,8.187-2.888,9.498-6.882    c22.19,24.126,53.63,38.283,87.502,38.283c6.354,0,12.706-0.513,18.987-1.53l-21.507,21.507    c-19.076-0.334-37.497-4.442-54.788-12.243c-5.036-2.273-10.957-0.031-13.228,5.003s-0.031,10.956,5.003,13.228    c14.195,6.404,29.049,10.639,44.363,12.662l-17.218,17.218c-17.085-3.725-33.413-9.883-48.678-18.356    c-0.552-5-4.787-8.89-9.934-8.89c-5.138,0-9.367,3.877-9.931,8.865c-15.207,8.42-31.568,14.559-48.769,18.292l-17.14-17.14    c15.316-2.022,30.174-6.247,44.372-12.652c5.034-2.271,7.274-8.193,5.003-13.228c-2.271-5.035-8.193-7.278-13.228-5.003    c-17.291,7.801-35.712,11.908-54.788,12.243l-21.543-21.543C162.762,129.498,186.368,126.491,207.536,117.038z M280.143,265.9    h44.203c-5.005,10.291-9.092,21.071-12.231,32.073L280.143,265.9z M298.211,312.354c-11.115,3.149-21.876,7.233-32.211,12.225    v-44.436L298.211,312.354z M280.142,246l32.504-32.504c3.349,11.2,7.67,22.061,12.933,32.504H280.142z M266,231.857v-44.398    c10.342,5.014,21.079,9.108,32.138,12.26L266,231.857z M231.857,266l-32.507,32.507c-3.352-11.208-7.674-22.07-12.934-32.507    H231.857z M187.646,246c5.004-10.287,9.092-20.969,12.234-31.977L231.857,246H187.646z M246,280.143v44.398    c-10.342-5.015-21.079-9.109-32.138-12.261L246,280.143z M213.789,199.646c11.114-3.149,21.876-7.233,32.211-12.225v44.436    L213.789,199.646z M183.405,197.548c-3.706,17.01-9.845,33.259-18.308,48.452h-23.348c12.969-19.807,21.302-42.262,24.393-65.715    L183.405,197.548z M117.044,207.526c9.448-21.165,12.454-44.766,8.793-67.547l21.637,21.637    c-0.448,30.786-11.149,60.448-30.428,84.384h-27.5C101.115,235.187,110.534,222.111,117.044,207.526z M126.753,371.104    c5.088-39.08-9.588-78.795-39.65-105.104h76.592c8.814,15.261,15.29,31.656,19.313,48.849L126.753,371.104z M304.464,394.962    c-14.793,6.605-28.038,16.199-38.937,28C264.24,418.925,260.463,416,256,416c-4.433,0-8.187,2.888-9.498,6.883    C224.313,398.756,192.872,384.6,159,384.6c-6.354,0-12.706,0.513-18.987,1.53l21.507-21.507    c19.076,0.334,37.496,4.442,54.788,12.243c1.335,0.603,2.731,0.888,4.106,0.888c3.811,0,7.452-2.191,9.121-5.891    c2.271-5.034,0.031-10.956-5.003-13.228c-14.195-6.404-29.049-10.639-44.363-12.662l17.218-17.218    c17.085,3.725,33.413,9.883,48.677,18.356C246.618,352.11,250.853,356,256,356c5.138,0,9.367-3.877,9.931-8.865    c15.207-8.419,31.568-14.558,48.769-18.293l17.14,17.14c-15.316,2.022-30.175,6.247-44.373,12.652    c-5.034,2.271-7.274,8.193-5.003,13.228c2.272,5.038,8.199,7.274,13.228,5.003c17.291-7.801,35.711-11.908,54.788-12.243    l21.543,21.543C349.238,382.502,325.633,385.51,304.464,394.962z M328.592,314.449c3.697-16.995,9.834-33.343,18.302-48.549    h23.376c-12.955,19.812-21.292,42.398-24.396,65.831L328.592,314.449z M384.6,353c0,6.354,0.513,12.706,1.529,18.986l-21.6-21.6    c0.468-30.721,11.18-60.559,30.432-84.486h27.374C398.541,288.06,384.6,319.385,384.6,353z M348.301,246    c-8.823-15.279-15.299-31.672-19.312-48.847l56.257-56.257c-5.087,39.08,9.588,78.795,39.652,105.104H348.301z" data-original="#000000" class="active-path" data-old_color="#000000" fill="#FFFFFF"/>
	</g>
</g></g> </svg>
