<?xml version="1.0"?>
<svg xmlns="http://www.w3.org/2000/svg" xmlns:xlink="http://www.w3.org/1999/xlink" version="1.1" id="Capa_1" x="0px" y="0px" viewBox="0 0 98.827 98.827" style="enable-background:new 0 0 98.827 98.827;" xml:space="preserve" width="512px" height="512px" class=""><g><g>
	<path d="M88.129,26.315h-43.13c-4.724,0-8.736,3.08-10.15,7.335H0v6h33.939l-0.937,7.749H5.833v6h26.443l-0.695,5.749H12.333v6   H31.84c1.405,4.27,5.424,7.364,10.159,7.364H85.13c5.753,0,10.461-4.565,10.688-10.265l2.966-24.515l0.043-0.359v-0.361   C98.827,31.114,94.028,26.315,88.129,26.315z M88.129,32.315c0.294,0,0.579,0.035,0.858,0.086L64.833,46.288L44.412,32.374   c0.194-0.024,0.386-0.059,0.587-0.059H88.129z M89.827,61.815c0,2.595-2.103,4.697-4.697,4.697H41.999   c-2.595,0-4.697-2.103-4.697-4.697l3-24.803c0-0.329,0.035-0.649,0.099-0.958c0.008,0.005,0.015,0.012,0.023,0.018L63.43,51.664   c0.03,0.021,0.063,0.032,0.094,0.05c0.032,0.02,0.065,0.036,0.099,0.054c0.176,0.09,0.356,0.162,0.54,0.21   c0.02,0.005,0.038,0.008,0.058,0.012c0.202,0.048,0.407,0.077,0.61,0.077h0.002c0.002,0,0.003,0,0.004,0   c0.203,0,0.408-0.029,0.61-0.077c0.02-0.004,0.038-0.007,0.058-0.012c0.184-0.048,0.364-0.12,0.54-0.21   c0.033-0.018,0.066-0.034,0.099-0.054c0.031-0.018,0.063-0.029,0.094-0.05l26.524-15.313c0.03,0.218,0.066,0.435,0.066,0.662   L89.827,61.815z" data-original="#000000" class="active-path" data-old_color="#000000" fill="#FFFFFF"/>
</g></g> </svg>
