<?xml version="1.0"?>
<svg xmlns="http://www.w3.org/2000/svg" xmlns:xlink="http://www.w3.org/1999/xlink" version="1.1" id="Interface" x="0px" y="0px" width="512px" height="512px" viewBox="0 0 144.083 144" enable-background="new 0 0 144.083 144" xml:space="preserve"><g><path d="M117.338,16.732H26.497c-7.713,0-13.988,6.275-13.988,13.988v84.563c0,7.713,6.275,13.987,13.988,13.987h90.841  c7.713,0,13.986-6.274,13.986-13.987V30.72C131.325,23.007,125.051,16.732,117.338,16.732z M125.325,115.282  c0,4.404-3.582,7.987-7.986,7.987H26.497c-4.404,0-7.988-3.583-7.988-7.987V51.655h106.816V115.282z M125.325,45.655H18.509V30.72  c0-4.404,3.584-7.988,7.988-7.988h90.841c4.404,0,7.986,3.583,7.986,7.988V45.655z" data-original="#000000" class="active-path" data-old_color="#000000" fill="#FFFFFF"/><rect x="27.673" y="32.052" width="8.734" height="6" data-original="#000000" class="active-path" data-old_color="#000000" fill="#FFFFFF"/><rect x="41.8" y="32.052" width="8.734" height="6" data-original="#000000" class="active-path" data-old_color="#000000" fill="#FFFFFF"/><rect x="55.927" y="32.052" width="8.735" height="6" data-original="#000000" class="active-path" data-old_color="#000000" fill="#FFFFFF"/><path d="M71.917,117.688c16.369,0,29.687-13.317,29.687-29.687S88.286,58.315,71.917,58.315c-16.369,0-29.687,13.317-29.687,29.687  S55.548,117.688,71.917,117.688z M82.725,109.068c-3.242,1.67-6.916,2.62-10.808,2.62c-3.893,0-7.565-0.95-10.809-2.62v-4.432  c0-3.982,3.978-7.851,7.672-9.759c0.972-0.501,1.593-1.491,1.623-2.584c0.029-1.093-0.537-2.114-1.479-2.669  c-2.479-1.455-4.079-4.571-4.079-7.939c0-4.839,3.173-8.775,7.072-8.775c3.9,0,7.072,3.937,7.072,8.775  c0,3.359-1.596,6.474-4.064,7.932c-0.941,0.557-1.506,1.58-1.473,2.672c0.031,1.092,0.654,2.08,1.627,2.58  c3.684,1.893,7.646,5.758,7.646,9.768V109.068z M71.917,64.315c13.06,0,23.687,10.626,23.687,23.687  c0,6.495-2.631,12.387-6.879,16.67v-0.035c0-5.357-3.43-9.838-7.293-12.807c2.254-2.695,3.557-6.297,3.557-10.145  c0-8.147-5.863-14.776-13.072-14.776c-7.208,0-13.072,6.628-13.072,14.776c0,3.858,1.31,7.467,3.571,10.164  c-3.87,2.976-7.308,7.453-7.308,12.787v0.035c-4.248-4.283-6.878-10.175-6.878-16.67C48.23,74.941,58.856,64.315,71.917,64.315z" data-original="#000000" class="active-path" data-old_color="#000000" fill="#FFFFFF"/></g> </svg>
